<svg width="136" height="136" viewBox="0 0 136 136" fill="none" xmlns="http://www.w3.org/2000/svg">
<path d="M124.667 17H11.3333C5.15667 17.2267 0.226667 22.1567 0 28.3333V107.667C0.226667 113.843 5.15667 118.773 11.3333 119H124.667C130.843 118.773 135.773 113.843 136 107.667V28.3333C135.896 25.3607 134.668 22.5383 132.565 20.435C130.462 18.3318 127.639 17.1043 124.667 17ZM124.667 107.667H11.3333V28.3333H124.667V107.667ZM79.3333 96.3333V89.25C79.3333 79.8433 60.4067 75.0833 51 75.0833C41.5933 75.0833 22.6667 79.8433 22.6667 89.25V96.3333H79.3333ZM51 39.6667C47.2428 39.6667 43.6394 41.1592 40.9827 43.816C38.3259 46.4728 36.8333 50.0761 36.8333 53.8333C36.8333 55.6937 37.1998 57.5359 37.9117 59.2547C38.6236 60.9735 39.6672 62.5352 40.9827 63.8507C43.6394 66.5074 47.2428 68 51 68C52.8604 68 54.7026 67.6336 56.4213 66.9216C58.1401 66.2097 59.7018 65.1662 61.0173 63.8507C62.3328 62.5352 63.3764 60.9735 64.0883 59.2547C64.8002 57.5359 65.1667 55.6937 65.1667 53.8333C65.1667 51.9729 64.8002 50.1308 64.0883 48.412C63.3764 46.6932 62.3328 45.1315 61.0173 43.816C59.7018 42.5005 58.1401 41.457 56.4213 40.745C54.7026 40.0331 52.8604 39.6667 51 39.6667ZM79.3333 39.6667V45.3333H113.333V39.6667H79.3333ZM79.3333 51V56.6667H113.333V51H79.3333ZM79.3333 62.3333V68H102V62.3333H79.3333Z" fill="#D8DB1D"/>
</svg>
